<svg version="1.1" id="Layer_1" xmlns="http://www.w3.org/2000/svg" xmlns:xlink="http://www.w3.org/1999/xlink" x="0px" y="0px" viewBox="0 0 45.6 45.5" style="enable-background:new 0 0 45.6 45.5;" xml:space="preserve">
 <style type="text/css">
  .st0{fill:#053366;}
 </style>
 <g>
  <path class="st0" d="M10.3,41.9c-3.3-2.4-5-4.1-6.6-6.6C1.3,31.6,0,27.2,0,22.8C0,10.2,10.2,0,22.8,0s22.8,10.2,22.8,22.8
		c0,5.2-1.8,10.4-4.9,14.2c-1.3,1.6-2.4,2.6-5.4,4.8V28.5h2.3v9.1c1.7-2,2.5-3.2,3.3-4.6c1.7-3,2.6-6.7,2.6-10.2
		c0-11.5-9.3-20.9-20.7-20.9c-11.5,0-20.7,9.4-20.7,21C2.1,28.3,4,33,8,37.6v-9.1h2.3V41.9z M14.8,44.2c-0.4-0.1-1.4-0.6-2.3-1V28.5
		h2.3V44.2z M28.5,12l-5.7-4.4L17.1,12l-1.2-1.6l7-5.4l7,5.4C29.9,10.4,28.5,12,28.5,12z M19.3,45.4c-0.8-0.1-0.9-0.1-1.2-0.2
		c-0.2,0-0.3,0-1.1-0.2V13.7h2.3C19.3,13.7,19.3,45.4,19.3,45.4z M23.9,45.5h-2.2V13.7H24v31.8H23.9z M28.5,44.8
		c-0.7,0.2-1.3,0.4-2.3,0.6V13.7h2.3C28.5,13.7,28.5,44.8,28.5,44.8z M33.1,43.1c-0.7,0.3-1.2,0.5-2.3,1.1V28.5h2.3V43.1z">
  </path>
 </g>
</svg>